<svg xmlns="http://www.w3.org/2000/svg" xmlns:xlink="http://www.w3.org/1999/xlink" width="450" zoomAndPan="magnify" viewBox="0 0 337.5 225" height="300" preserveAspectRatio="xMidYMid meet" version="1.0"><defs><clipPath id="861e0feebc"><path d="M 90.394531 37.445312 L 247.894531 37.445312 L 247.894531 186.277344 L 90.394531 186.277344 Z M 90.394531 37.445312 " clip-rule="nonzero"/></clipPath></defs><g clip-path="url(#861e0feebc)"><path fill="#ffffff" d="M -83.605469 -5.667969 L 267.394531 -5.667969 L 267.394531 228.332031 L -83.605469 228.332031 Z M -83.605469 -5.667969 " fill-opacity="1" fill-rule="nonzero"/></g><path fill="#248b04" d="M 212.136719 101.574219 C 211.246094 102.683594 210.363281 103.800781 209.492188 104.910156 L 209.492188 158.464844 C 209.492188 163.050781 205.761719 166.785156 201.171875 166.785156 L 118.515625 166.785156 C 113.921875 166.785156 110.195312 163.050781 110.195312 158.464844 L 110.195312 75.808594 C 110.195312 71.214844 113.921875 67.488281 118.515625 67.488281 L 196.550781 67.488281 C 199.667969 63.757812 202.558594 60.34375 205.597656 56.929688 L 208.195312 53.972656 L 209.691406 52.339844 C 207.035156 51.371094 204.160156 50.84375 201.171875 50.84375 L 118.515625 50.84375 C 104.746094 50.84375 93.554688 62.039062 93.554688 75.808594 L 93.554688 158.464844 C 93.554688 172.226562 104.746094 183.425781 118.515625 183.425781 L 201.171875 183.425781 C 214.9375 183.425781 226.136719 172.226562 226.136719 158.464844 L 226.136719 84.667969 C 221.804688 89.6875 217.253906 95.183594 212.136719 101.574219 Z M 212.136719 101.574219 " fill-opacity="1" fill-rule="nonzero"/><path fill="#248b04" d="M 244.921875 43.421875 C 242.519531 39.371094 237.285156 38.03125 233.234375 40.4375 C 230.96875 41.78125 228.859375 43.316406 226.808594 44.921875 C 225.773438 45.710938 224.820312 46.574219 223.855469 47.429688 C 222.894531 48.289062 221.953125 49.171875 221.019531 50.0625 C 219.136719 51.828125 217.445312 53.753906 215.703125 55.636719 L 213.101562 58.476562 L 210.566406 61.355469 C 207.164062 65.179688 203.886719 69.089844 200.617188 73.003906 L 195.78125 78.921875 L 191.074219 84.925781 C 184.855469 92.96875 178.804688 101.113281 173.011719 109.429688 C 170.101562 113.578125 167.253906 117.765625 164.421875 121.972656 C 163.386719 123.542969 162.355469 125.121094 161.324219 126.695312 C 159.109375 124.851562 157.113281 122.804688 155.3125 120.519531 C 151.652344 115.925781 148.796875 110.3125 146.417969 104.226562 L 146.367188 104.089844 C 144.777344 100.046875 140.308594 97.878906 136.109375 99.207031 C 131.726562 100.59375 129.296875 105.273438 130.6875 109.65625 C 131.847656 113.3125 133.1875 116.988281 134.871094 120.613281 C 136.554688 124.234375 138.566406 127.820312 140.980469 131.210938 C 143.40625 134.59375 146.230469 137.769531 149.324219 140.582031 C 152.417969 143.402344 155.78125 145.839844 159.203125 147.941406 C 163.382812 150.5 168.894531 149.359375 171.679688 145.269531 L 171.847656 145.023438 C 174.613281 140.953125 177.457031 136.914062 180.308594 132.890625 C 183.167969 128.863281 186.042969 124.855469 188.976562 120.890625 C 194.851562 112.960938 200.792969 105.097656 206.9375 97.417969 C 213.085938 89.738281 219.347656 82.1875 225.851562 74.898438 L 228.285156 72.160156 L 230.765625 69.484375 C 232.425781 67.703125 234.0625 65.894531 235.699219 64.105469 C 237.324219 62.3125 238.863281 60.414062 240.386719 58.515625 C 241.914062 56.621094 243.378906 54.660156 244.6875 52.511719 L 244.878906 52.195312 C 246.457031 49.589844 246.582031 46.222656 244.921875 43.421875 Z M 244.921875 43.421875 " fill-opacity="1" fill-rule="nonzero"/></svg>