<svg xmlns="http://www.w3.org/2000/svg" xmlns:xlink="http://www.w3.org/1999/xlink" width="600" zoomAndPan="magnify" viewBox="0 0 450 299.999988" height="400" preserveAspectRatio="xMidYMid meet" version="1.0"><defs><clipPath id="9448b8c360"><path d="M 130.863281 59.382812 L 319.113281 59.382812 L 319.113281 240.882812 L 130.863281 240.882812 Z M 130.863281 59.382812 " clip-rule="nonzero"/></clipPath></defs><g clip-path="url(#9448b8c360)"><path fill="#ffffff" d="M 109.617188 -8.535156 L 559.617188 -8.535156 L 559.617188 291.464844 L 109.617188 291.464844 Z M 109.617188 -8.535156 " fill-opacity="1" fill-rule="nonzero"/></g><path fill="#dd2a37" d="M 305.929688 104.71875 C 305.453125 105.074219 285.539062 120.699219 285.539062 120.699219 L 285.539062 201.886719 C 285.539062 207.769531 280.753906 212.554688 274.871094 212.554688 L 168.902344 212.554688 C 163.011719 212.554688 158.234375 207.769531 158.234375 201.886719 L 158.234375 95.917969 C 158.234375 90.03125 163.011719 85.25 168.902344 85.25 L 264.765625 85.25 C 273.136719 79.226562 281.796875 73.472656 290.632812 68.074219 C 285.980469 65.421875 280.597656 63.914062 274.871094 63.914062 L 168.902344 63.914062 C 151.25 63.914062 136.898438 78.265625 136.898438 95.917969 L 136.898438 201.886719 C 136.898438 219.53125 151.25 233.890625 168.902344 233.890625 L 274.871094 233.890625 C 292.515625 233.890625 306.875 219.535156 306.875 201.886719 L 306.875 104.011719 Z M 305.929688 104.71875 " fill-opacity="1" fill-rule="nonzero"/><path fill="#dd2a37" d="M 296.847656 74.28125 C 285.285156 81.285156 274.082031 88.832031 263.324219 96.878906 C 252.585938 104.945312 242.097656 113.320312 231.988281 122.078125 C 229.167969 124.535156 226.367188 127.007812 223.582031 129.492188 C 222.703125 128.457031 221.824219 127.417969 220.984375 126.347656 L 217.121094 121.324219 L 215.183594 118.820312 L 213.367188 116.214844 L 209.707031 111.023438 C 209.078125 110.175781 208.523438 109.265625 207.960938 108.367188 C 207.390625 107.472656 206.75 106.621094 206.019531 105.828125 C 205.28125 105.039062 204.457031 104.300781 203.511719 103.632812 C 202.558594 102.964844 201.519531 102.347656 200.183594 101.898438 L 198.664062 101.378906 C 197.585938 101.023438 196.441406 100.804688 195.25 100.746094 C 188.210938 100.402344 182.226562 105.832031 181.886719 112.875 C 181.613281 118.546875 184.238281 122.601562 186.972656 126.5 L 191.136719 132.335938 L 193.234375 135.246094 L 195.476562 138.054688 L 199.980469 143.652344 C 201.195312 145.089844 202.472656 146.484375 203.738281 147.882812 C 203.296875 148.308594 202.851562 148.726562 202.410156 149.152344 L 195.261719 156.175781 C 192.90625 158.546875 190.523438 160.886719 188.191406 163.289062 C 185.847656 165.671875 183.597656 168.15625 181.5625 170.851562 C 180.535156 172.179688 179.558594 173.578125 178.640625 175.019531 C 178.183594 175.738281 177.734375 176.476562 177.3125 177.242188 C 176.882812 177.996094 176.488281 178.773438 176.085938 179.628906 C 174.703125 182.636719 174.644531 186.277344 176.277344 189.449219 C 179.097656 194.917969 185.816406 197.066406 191.285156 194.25 L 191.933594 193.914062 C 192.636719 193.554688 193.359375 193.125 194.046875 192.671875 C 194.734375 192.222656 195.402344 191.757812 196.074219 191.277344 C 197.40625 190.320312 198.664062 189.304688 199.914062 188.265625 C 202.402344 186.179688 204.730469 183.9375 206.976562 181.613281 C 209.214844 179.28125 211.511719 176.996094 213.773438 174.683594 L 220.660156 167.832031 C 221.234375 167.269531 221.8125 166.710938 222.390625 166.148438 C 223.476562 167.078125 224.574219 167.996094 225.699219 168.886719 C 226.628906 169.652344 227.566406 170.410156 228.511719 171.160156 L 231.4375 173.308594 L 234.363281 175.453125 C 235.335938 176.167969 236.371094 176.820312 237.371094 177.503906 C 238.375 178.179688 239.382812 178.855469 240.402344 179.515625 C 241.417969 180.171875 242.484375 180.78125 243.523438 181.414062 C 244.570312 182.035156 245.597656 182.679688 246.664062 183.28125 L 249.886719 185.046875 C 250.953125 185.636719 252.070312 186.175781 253.179688 186.722656 C 254.292969 187.265625 255.382812 187.820312 256.542969 188.324219 C 257.695312 188.835938 258.820312 189.339844 260.035156 189.816406 C 260.648438 190.058594 261.203125 190.296875 261.859375 190.535156 L 263.984375 191.292969 C 268.386719 192.863281 273.464844 191.363281 276.238281 187.332031 C 279.542969 182.527344 278.324219 175.953125 273.519531 172.652344 L 271.703125 171.402344 L 271.558594 171.304688 C 271.53125 171.28125 271.386719 171.203125 271.304688 171.152344 L 270.726562 170.820312 C 270.347656 170.617188 269.898438 170.335938 269.492188 170.101562 C 268.660156 169.632812 267.804688 169.066406 266.953125 168.542969 C 266.097656 168.035156 265.242188 167.449219 264.390625 166.890625 C 263.539062 166.328125 262.683594 165.773438 261.84375 165.15625 L 259.308594 163.382812 C 258.464844 162.785156 257.644531 162.136719 256.8125 161.519531 C 255.984375 160.886719 255.144531 160.289062 254.332031 159.632812 C 253.527344 158.964844 252.710938 158.3125 251.894531 157.667969 C 251.085938 157.007812 250.253906 156.390625 249.464844 155.699219 L 247.09375 153.640625 L 244.722656 151.585938 C 243.964844 150.863281 243.199219 150.140625 242.429688 149.433594 C 241.992188 149.046875 241.566406 148.644531 241.140625 148.246094 C 243.699219 145.863281 246.277344 143.492188 248.871094 141.148438 L 256.054688 134.632812 L 263.34375 128.257812 C 265.765625 126.113281 268.238281 124.050781 270.691406 121.960938 L 274.378906 118.832031 L 276.222656 117.265625 L 278.101562 115.75 L 285.585938 109.648438 C 288.078125 107.609375 290.652344 105.703125 293.179688 103.714844 L 296.972656 100.738281 C 298.234375 99.746094 299.542969 98.832031 300.828125 97.875 L 308.539062 92.125 L 308.792969 91.9375 C 313.125 88.683594 314.371094 82.613281 311.503906 77.878906 C 308.453125 72.839844 301.890625 71.226562 296.847656 74.28125 Z M 296.847656 74.28125 " fill-opacity="1" fill-rule="nonzero"/></svg>